<svg xmlns="http://www.w3.org/2000/svg" width="18" height="20" viewBox="0 0 18 20">
  <g id="bx-task" transform="translate(-3 -2)">
    <path id="Path_1308" data-name="Path 1308" d="M5,22H19a2,2,0,0,0,2-2V5a2,2,0,0,0-2-2H17a1,1,0,0,0-1-1H8A1,1,0,0,0,7,3H5A2,2,0,0,0,3,5V20A2,2,0,0,0,5,22ZM5,5H7V7H17V5h2V20H5Z" fill="#3157f6"/>
    <path id="Path_1309" data-name="Path 1309" d="M11,13.586,9.207,11.793,7.793,13.207,11,16.414l5.207-5.207L14.793,9.793Z" transform="translate(0 0)" fill="#3157f6"/>
  </g>
</svg>
