<svg xmlns="http://www.w3.org/2000/svg" width="68.334" height="68.334" viewBox="0 0 68.334 68.334">
  <path id="bxs-badge-check_3_" data-name="bxs-badge-check (3)" d="M63.381,24.28a13.586,13.586,0,0,0,.12-1.78A13.748,13.748,0,0,0,48.054,8.953a13.637,13.637,0,0,0-23.773,0A13.739,13.739,0,0,0,8.833,22.5a13.587,13.587,0,0,0,.12,1.78,13.637,13.637,0,0,0,0,23.773,13.584,13.584,0,0,0-.12,1.78A13.749,13.749,0,0,0,24.28,63.381a13.637,13.637,0,0,0,23.773,0A13.757,13.757,0,0,0,63.5,49.834a13.586,13.586,0,0,0-.12-1.78,13.637,13.637,0,0,0,0-23.773ZM32.6,51.255,20.068,38.566l4.865-4.8,7.711,7.811L47.428,26.908l4.811,4.852L32.6,51.255Z" transform="translate(-2 -2)" fill="#3157f6"/>
</svg>
