<svg xmlns="http://www.w3.org/2000/svg" width="11.2" height="14" viewBox="0 0 11.2 14">
  <g id="bxs-coin-stack" transform="translate(-4 -2)">
    <path id="Path_1314" data-name="Path 1314" d="M9.6,7.6c2.783,0,5.6-.962,5.6-2.8S12.383,2,9.6,2,4,2.962,4,4.8,6.817,7.6,9.6,7.6Z" fill="#3157f6"/>
    <path id="Path_1315" data-name="Path 1315" d="M4,9.4c0,1.838,2.817,2.8,5.6,2.8s5.6-.962,5.6-2.8V8c0,1.838-2.817,2.8-5.6,2.8S4,9.838,4,8Z" transform="translate(0 -1.8)" fill="#3157f6"/>
    <path id="Path_1316" data-name="Path 1316" d="M4,13.4c0,1.838,2.817,2.8,5.6,2.8s5.6-.962,5.6-2.8V12c0,1.838-2.817,2.8-5.6,2.8S4,13.838,4,12Z" transform="translate(0 -3)" fill="#3157f6"/>
    <path id="Path_1317" data-name="Path 1317" d="M4,17.4c0,1.838,2.817,2.8,5.6,2.8s5.6-.962,5.6-2.8V16c0,1.838-2.817,2.8-5.6,2.8S4,17.838,4,16Z" transform="translate(0 -4.2)" fill="#3157f6"/>
  </g>
</svg>
