<svg xmlns="http://www.w3.org/2000/svg" width="15.556" height="14" viewBox="0 0 15.556 14">
  <path id="bxs-business" d="M16.778,6.111H12.111a.778.778,0,0,0-.778.778V9.222H9.778V3.778A.778.778,0,0,0,9,3H2.778A.778.778,0,0,0,2,3.778V16.222A.778.778,0,0,0,2.778,17h14a.778.778,0,0,0,.778-.778V6.889A.778.778,0,0,0,16.778,6.111ZM6.667,5.333H8.222V6.889H6.667ZM5.111,13.111H3.556V11.556H5.111Zm0-3.111H3.556V8.444H5.111Zm0-3.111H3.556V5.333H5.111Zm3.111,6.222H6.667V11.556H8.222Zm0-3.111H6.667V8.444H8.222Zm7,3.111H13.667V11.556h1.556Zm0-3.111H13.667V8.444h1.556Z" transform="translate(-2 -3)" fill="#3157f6"/>
</svg>
