<svg xmlns="http://www.w3.org/2000/svg" width="16" height="16" viewBox="0 0 16 16">
  <path id="bxs-dashboard" d="M3.889,11.889H9.222A.889.889,0,0,0,10.111,11V3.889A.889.889,0,0,0,9.222,3H3.889A.889.889,0,0,0,3,3.889V11A.889.889,0,0,0,3.889,11.889ZM3,18.111A.889.889,0,0,0,3.889,19H9.222a.889.889,0,0,0,.889-.889V14.556a.889.889,0,0,0-.889-.889H3.889A.889.889,0,0,0,3,14.556Zm8.889,0a.889.889,0,0,0,.889.889h5.333A.889.889,0,0,0,19,18.111V11.889A.889.889,0,0,0,18.111,11H12.778a.889.889,0,0,0-.889.889Zm.889-8.889h5.333A.889.889,0,0,0,19,8.333V3.889A.889.889,0,0,0,18.111,3H12.778a.889.889,0,0,0-.889.889V8.333A.889.889,0,0,0,12.778,9.222Z" transform="translate(-3 -3)" fill="#3157f6"/>
</svg>
