<svg xmlns="http://www.w3.org/2000/svg" width="50" height="48" viewBox="0 0 50 48">
  <g id="Group_575" data-name="Group 575" transform="translate(-16 -113)">
    <rect id="Rectangle_512" data-name="Rectangle 512" width="50" height="48" transform="translate(16 113)" fill="#f2f2f2" opacity="0"/>
    <path id="bxs-home_2_" data-name="bxs-home (2)" d="M21.757,12.338,12.751,2.331a1.031,1.031,0,0,0-1.487,0L2.257,12.338A1,1,0,0,0,3,14.009H5v7.005a1,1,0,0,0,1,1h3a1,1,0,0,0,1-1v-4h4v4a1,1,0,0,0,1,1h3a1,1,0,0,0,1-1V14.009h2a1,1,0,0,0,.744-1.67Z" transform="translate(28.991 124.986)" fill="#aaa"/>
  </g>
</svg>
