<svg xmlns="http://www.w3.org/2000/svg" width="50" height="48" viewBox="0 0 50 48">
  <g id="Group_596" data-name="Group 596" transform="translate(-16 -229)">
    <rect id="Rectangle_515" data-name="Rectangle 515" width="50" height="48" transform="translate(16 229)" fill="#f2f2f2" opacity="0"/>
    <path id="bxs-bell-ring_1_" data-name="bxs-bell-ring (1)" d="M5.7,3.71,4.295,2.29C1,5.563,1,7.935,1,11H2l1-.063C3,8.009,3,6.4,5.7,3.71Zm14-1.42L18.3,3.71C21,6.4,21,8.009,21,11l2-.063c0-3,0-5.374-3.3-8.647ZM12,22a2.98,2.98,0,0,0,2.818-2H9.182A2.98,2.98,0,0,0,12,22Zm7-7.414V10a7.006,7.006,0,0,0-5.145-6.742,2,2,0,0,0-3.71,0A7,7,0,0,0,5,10v4.586L3.293,16.293A1,1,0,0,0,3,17v1a1,1,0,0,0,1,1H20a1,1,0,0,0,1-1V17a1,1,0,0,0-.293-.707Z" transform="translate(29 241)" fill="#aaa"/>
  </g>
</svg>
