<svg xmlns="http://www.w3.org/2000/svg" width="50" height="48" viewBox="0 0 50 48">
  <g id="Group_575" data-name="Group 575" transform="translate(-16 -113)">
    <rect id="Rectangle_512" data-name="Rectangle 512" width="50" height="48" transform="translate(16 113)" fill="#f2f2f2" opacity="0"/>
    <path id="bxs-business" d="M23.111,7.444H16.444a1.111,1.111,0,0,0-1.111,1.111v3.333H13.111V4.111A1.111,1.111,0,0,0,12,3H3.111A1.111,1.111,0,0,0,2,4.111V21.889A1.111,1.111,0,0,0,3.111,23h20a1.111,1.111,0,0,0,1.111-1.111V8.556A1.111,1.111,0,0,0,23.111,7.444ZM8.667,6.333h2.222V8.556H8.667ZM6.444,17.444H4.222V15.222H6.444Zm0-4.444H4.222V10.778H6.444Zm0-4.444H4.222V6.333H6.444Zm4.444,8.889H8.667V15.222h2.222Zm0-4.444H8.667V10.778h2.222Zm10,4.444H18.667V15.222h2.222Zm0-4.444H18.667V10.778h2.222Z" transform="translate(28 124)" fill="#aaa"/>
  </g>
</svg>
