<svg xmlns="http://www.w3.org/2000/svg" width="50" height="48" viewBox="0 0 50 48">
  <g id="Group_576" data-name="Group 576" transform="translate(-16 -171)">
    <rect id="Rectangle_513" data-name="Rectangle 513" width="50" height="48" transform="translate(16 171)" fill="#f2f2f2" opacity="0"/>
    <path id="bxs-star-half" d="M5.025,20.773a1,1,0,0,0,1.53,1.057L12,18.2l5.444,3.63a1,1,0,0,0,1.517-1.106l-1.829-6.4,4.536-4.082a1,1,0,0,0-.59-1.74l-5.7-.454L12.91,2.589a1,1,0,0,0-1.822,0L8.621,8.049l-5.7.453A1,1,0,0,0,2.3,10.215l4.214,4.107L5.025,20.773ZM12,5.429l2.042,4.521.588.047h0l3.972.315-3.271,2.944v0l-.463.416.171.6v0l1.253,4.385L12,15.8Z" transform="translate(29 183.002)" fill="#aaa"/>
  </g>
</svg>
