<svg xmlns="http://www.w3.org/2000/svg" width="25.309" height="28.121" viewBox="0 0 25.309 28.121">
  <g id="bx-task" transform="translate(-3 -2)">
    <path id="Path_1308" data-name="Path 1308" d="M5.812,30.121H25.5a2.815,2.815,0,0,0,2.812-2.812V6.218A2.815,2.815,0,0,0,25.5,3.406H22.684A1.406,1.406,0,0,0,21.278,2H10.03A1.406,1.406,0,0,0,8.624,3.406H5.812A2.815,2.815,0,0,0,3,6.218v21.09A2.815,2.815,0,0,0,5.812,30.121Zm0-23.9H8.624v.448h14.06V6.218H25.5v21.09H5.812Z" fill="#fff"/>
    <path id="bx-search_1_" data-name="bx-search (1)" d="M7.826,13.652a5.79,5.79,0,0,0,3.565-1.229l3.2,3.2,1.03-1.03-3.2-3.2a5.819,5.819,0,1,0-4.6,2.259Zm0-10.2A4.369,4.369,0,1,1,3.456,7.826,4.374,4.374,0,0,1,7.826,3.456Z" transform="translate(6.844 8.087)" fill="#fff"/>
  </g>
</svg>
