<svg xmlns="http://www.w3.org/2000/svg" width="50" height="48" viewBox="0 0 50 48">
  <g id="Group_596" data-name="Group 596" transform="translate(-16 -229)">
    <rect id="Rectangle_515" data-name="Rectangle 515" width="50" height="48" transform="translate(16 229)" fill="#f2f2f2" opacity="0"/>
    <path id="bxs-share-alt" d="M3,13a3.324,3.324,0,0,0,5.61,2.422l6.657,3.8a3.173,3.173,0,0,0-.044.44,3.356,3.356,0,1,0,1.057-2.422l-6.657-3.8A3.207,3.207,0,0,0,9.667,13a3.207,3.207,0,0,0-.044-.441l6.657-3.8a3.325,3.325,0,1,0-1.057-2.422,3.207,3.207,0,0,0,.044.441l-6.657,3.8A3.324,3.324,0,0,0,3,13Z" transform="translate(29.001 240)" fill="#aaa"/>
  </g>
</svg>
