<svg xmlns="http://www.w3.org/2000/svg" width="50" height="48" viewBox="0 0 50 48">
  <g id="Group_575" data-name="Group 575" transform="translate(-16 -113)">
    <rect id="Rectangle_512" data-name="Rectangle 512" width="50" height="48" transform="translate(16 113)" fill="#f2f2f2" opacity="0"/>
    <g id="bx-history" transform="translate(27.889 124)">
      <path id="Path_1306" data-name="Path 1306" d="M12,8v5.556h5.556V11.333H14.222V8Z" transform="translate(1.111 0.556)" fill="#aaa"/>
      <path id="Path_1307" data-name="Path 1307" d="M23.436,9.108a10.01,10.01,0,0,0-7.2-5.9,10.1,10.1,0,0,0-4.029,0A9.993,9.993,0,0,0,4.222,13v.028H2l3.333,4.417,3.333-4.417H6.446V13A7.73,7.73,0,0,1,7.772,8.652a7.778,7.778,0,0,1,14.07,2.777,7.908,7.908,0,0,1,0,3.138,7.789,7.789,0,0,1-2.12,3.932,7.842,7.842,0,0,1-2.472,1.668,7.756,7.756,0,0,1-1.459.453,7.908,7.908,0,0,1-3.137,0,7.73,7.73,0,0,1-2.779-1.17,7.851,7.851,0,0,1-1.152-.95L7.152,20.071A10,10,0,0,0,23.436,9.108Z" fill="#aaa"/>
    </g>
  </g>
</svg>
