<svg xmlns="http://www.w3.org/2000/svg" width="12.6" height="14" viewBox="0 0 12.6 14">
  <g id="bx-task" transform="translate(-3 -2)">
    <path id="Path_1308" data-name="Path 1308" d="M4.4,16h9.8a1.4,1.4,0,0,0,1.4-1.4V4.1a1.4,1.4,0,0,0-1.4-1.4H12.8a.7.7,0,0,0-.7-.7H6.5a.7.7,0,0,0-.7.7H4.4A1.4,1.4,0,0,0,3,4.1V14.6A1.4,1.4,0,0,0,4.4,16Zm0-11.9H5.8V5.5h7V4.1h1.4V14.6H4.4Z" fill="#fff"/>
    <path id="Path_1309" data-name="Path 1309" d="M10.038,12.448,8.783,11.193l-.99.99,2.245,2.245,3.645-3.645-.99-.99Z" transform="translate(-1.438 -2.338)" fill="#fff"/>
  </g>
</svg>
