<svg xmlns="http://www.w3.org/2000/svg" width="14.4" height="16" viewBox="0 0 14.4 16">
  <g id="bx-task" transform="translate(-3 -2)">
    <path id="Path_1308" data-name="Path 1308" d="M4.6,18H15.8a1.6,1.6,0,0,0,1.6-1.6V4.4a1.6,1.6,0,0,0-1.6-1.6H14.2a.8.8,0,0,0-.8-.8H7a.8.8,0,0,0-.8.8H4.6A1.6,1.6,0,0,0,3,4.4v12A1.6,1.6,0,0,0,4.6,18Zm0-13.6H6.2V6h8V4.4h1.6v12H4.6Z" fill="#3157f6"/>
    <path id="Path_1309" data-name="Path 1309" d="M10.359,12.827,8.924,11.393,7.793,12.524l2.566,2.566,4.166-4.166L13.393,9.793Z" transform="translate(-0.959 -1.559)" fill="#3157f6"/>
  </g>
</svg>
