<svg xmlns="http://www.w3.org/2000/svg" width="20.108" height="14" viewBox="0 0 20.108 14">
  <g id="bx-show" transform="translate(-1.946 -5)">
    <path id="Path_1284" data-name="Path 1284" d="M12,9a3,3,0,1,0,3,3A3.02,3.02,0,0,0,12,9Z" fill="#aaa"/>
    <path id="Path_1285" data-name="Path 1285" d="M12,5a10.487,10.487,0,0,0-9.948,6.684L1.946,12l.1.316A10.491,10.491,0,0,0,12,19a10.487,10.487,0,0,0,9.948-6.684L22.054,12l-.1-.316A10.491,10.491,0,0,0,12,5Zm0,12a8.347,8.347,0,0,1-7.926-5A8.348,8.348,0,0,1,12,7a8.347,8.347,0,0,1,7.926,5A8.348,8.348,0,0,1,12,17Z" fill="#aaa"/>
  </g>
</svg>
