<svg xmlns="http://www.w3.org/2000/svg" width="20" height="19.414" viewBox="0 0 20 19.414">
  <path id="bx-hide" d="M12,19a11.754,11.754,0,0,0,2.6-.281l-1.757-1.757c-.273.021-.55.038-.841.038a8.347,8.347,0,0,1-7.926-5A8.642,8.642,0,0,1,5.582,9.7l-1.4-1.4a10.638,10.638,0,0,0-2.132,3.379.994.994,0,0,0,0,.633A10.488,10.488,0,0,0,12,19ZM12,5a10.739,10.739,0,0,0-4.6.981L3.707,2.293,2.293,3.707l18,18,1.414-1.414-3.319-3.319a10.9,10.9,0,0,0,3.561-4.657.994.994,0,0,0,0-.633A10.491,10.491,0,0,0,12,5Zm4.972,10.558-2.28-2.28A2.9,2.9,0,0,0,15,12a3.021,3.021,0,0,0-3-3,2.884,2.884,0,0,0-1.277.309L8.915,7.5A9.26,9.26,0,0,1,12,7a8.347,8.347,0,0,1,7.926,5,8.558,8.558,0,0,1-2.954,3.558Z" transform="translate(-2 -2.293)" fill="#fff"/>
</svg>
