<svg xmlns="http://www.w3.org/2000/svg" width="18.061" height="16" viewBox="0 0 18.061 16">
  <g id="bxs-group_6_" data-name="bxs-group (6)" transform="translate(-2 -3.168)">
    <path id="Path_4" data-name="Path 4" d="M9.129,11.6a3.8,3.8,0,1,0-3.8-3.8A3.806,3.806,0,0,0,9.129,11.6Zm1.426.951H7.7a5.709,5.709,0,0,0-5.7,5.7v.951H16.259v-.951A5.709,5.709,0,0,0,10.555,12.555Z" transform="translate(0 -0.041)" fill="#8d29ff"/>
    <path id="Path_5" data-name="Path 5" d="M16.431,10.658a5.39,5.39,0,0,0,.714-3.27A5.737,5.737,0,0,0,14.48,3.168L13.43,4.752a3.875,3.875,0,0,1,1.823,2.827,3.51,3.51,0,0,1-1.019,2.838L13.1,11.55,14.639,12a5.691,5.691,0,0,1,4.069,5.265h1.9A7.586,7.586,0,0,0,16.431,10.658Z" transform="translate(-0.549)" fill="#8d29ff"/>
  </g>
</svg>
